<svg width="31" height="31" fill="none" xmlns="http://www.w3.org/2000/svg"><path d="M21.08 11.61c.296-.097.593-.132.89-.106a2.258 2.258 0 0 1 1.507.767c.195.224.341.484.438.781l1.393 4.28a6.676 6.676 0 0 1-.407 5.148 6.953 6.953 0 0 1-1.594 2.034 6.683 6.683 0 0 1-2.329 1.325 7.659 7.659 0 0 1-3.186.36 8.845 8.845 0 0 1-3.084-.92l-6.972-3.547a2.351 2.351 0 0 1-1.158-1.36 2.225 2.225 0 0 1-.104-.928c.032-.307.114-.596.247-.87.133-.273.316-.505.55-.696.234-.191.504-.345.811-.461a2.255 2.255 0 0 1 1.785.146l1.577.793-1.219-3.744a5.198 5.198 0 0 1-1.435-.396 5.107 5.107 0 0 1-1.236-.768 5.755 5.755 0 0 1-.992-1.082 4.69 4.69 0 0 1-.658-1.339 5.085 5.085 0 0 1-.241-2.066 5.449 5.449 0 0 1 .551-1.941 5.055 5.055 0 0 1 1.234-1.585A5.396 5.396 0 0 1 9.271 4.41a5.085 5.085 0 0 1 2.066-.24 5.45 5.45 0 0 1 1.942.55 5.056 5.056 0 0 1 1.585 1.234c.448.52.79 1.128 1.024 1.824a5.253 5.253 0 0 1-.396 4.159 2.08 2.08 0 0 1 .81.105c.26.089.505.223.736.402a2.275 2.275 0 0 1 2.077-.7c.374.066.71.228 1.007.485.274-.295.593-.501.957-.62ZM7.33 10.562a3.7 3.7 0 0 0 .898 1.47c.417.423.903.73 1.457.918L8.757 10.1a2.258 2.258 0 0 1 .13-1.719 2.257 2.257 0 0 1 3.71-.455c.196.223.342.484.439.781l.928 2.853a3.7 3.7 0 0 0 .638-1.6 3.7 3.7 0 0 0-.14-1.717 3.664 3.664 0 0 0-1.864-2.166 4.084 4.084 0 0 0-1.386-.4c-.494-.052-.986 0-1.476.16s-.921.403-1.291.729A3.803 3.803 0 0 0 7.159 9.09c-.045.492.012.983.171 1.473Zm15.159 2.954a.72.72 0 0 0-.375-.433.72.72 0 0 0-.57-.048c-.253.082-.405.21-.456.382-.05.172-.053.366-.007.582.045.215.116.446.213.694.098.248.171.474.222.68.05.205.049.403-.005.593-.053.19-.208.318-.466.386-.274.089-.488.064-.64-.075-.152-.14-.284-.343-.396-.611a4.397 4.397 0 0 1-.257-.865 4.4 4.4 0 0 0-.257-.866c-.112-.267-.239-.468-.381-.603-.142-.134-.36-.162-.655-.082-.253.082-.405.21-.455.382-.05.173-.053.367-.008.582.045.215.117.447.214.694.097.248.17.475.22.68.051.205.05.403-.003.593-.054.19-.209.319-.466.386-.275.09-.489.064-.641-.075-.152-.14-.284-.343-.396-.61a4.398 4.398 0 0 1-.257-.866 4.403 4.403 0 0 0-.257-.865c-.112-.268-.239-.469-.38-.603-.143-.135-.362-.162-.656-.083-.253.082-.405.21-.455.382-.05.173-.053.367-.008.582.045.215.117.447.214.695.097.247.17.474.221.68.05.205.049.402-.004.592-.053.19-.209.319-.466.386a.72.72 0 0 1-.57-.048.72.72 0 0 1-.375-.433L11.608 9.17a.72.72 0 0 0-.374-.432.72.72 0 0 0-.57-.049.72.72 0 0 0-.433.375.72.72 0 0 0-.049.57l2.854 8.77a1.258 1.258 0 0 1-.066.97 1.017 1.017 0 0 1-.306.384c-.132.1-.277.185-.436.253a1.314 1.314 0 0 1-.996-.07L9.18 18.896a.8.8 0 0 0-.634-.053.8.8 0 0 0-.48.415.856.856 0 0 0-.06.649.8.8 0 0 0 .414.48l6.976 3.56c.827.42 1.665.674 2.514.759a6.439 6.439 0 0 0 2.604-.293 5.086 5.086 0 0 0 1.812-1.021 5.306 5.306 0 0 0 1.789-3.516 5.256 5.256 0 0 0-.234-2.08l-1.392-4.28Z" fill="#000"/></svg>