<svg aria-hidden="true" style="width:0;height:0;position:absolute;overflow:hidden" xmlns="http://www.w3.org/2000/svg"><defs><symbol id="icon-addfavorite" viewBox="0 0 32 32"><path stroke="#4440f7" style="stroke:var(--color1,#4440f7)" stroke-linejoin="round" stroke-linecap="round" stroke-width="2" d="M9.333 4c-3.681 0-6.667 2.955-6.667 6.6 0 2.943 1.167 9.927 12.651 16.987a1.316 1.316 0 0 0 1.366 0c11.484-7.06 12.651-14.044 12.651-16.987 0-3.645-2.985-6.6-6.667-6.6S16 8 16 8s-2.985-4-6.667-4z"/></symbol><symbol id="icon-darkthema" viewBox="0 0 32 32"><path fill="none" stroke-linejoin="round" stroke-linecap="round" stroke-width="2.286" d="M28 17.053a11.994 11.994 0 0 1-7.873 10.182A12.003 12.003 0 0 1 4.338 18.56 12.002 12.002 0 0 1 14.946 3.999 9.335 9.335 0 0 0 28 17.053z"/></symbol><symbol id="icon-darkthematogle" viewBox="0 0 61 32"><path fill="#4b48db" style="fill:var(--color3,#4b48db)" d="M15.238 1.524h30.476C53.709 1.524 60.19 8.005 60.19 16s-6.481 14.476-14.476 14.476H15.238C7.243 30.476.762 23.995.762 16S7.243 1.524 15.238 1.524z"/><path fill="#fff" style="fill:var(--color4,#fff)" d="M57.905 16c0 6.733-5.458 12.19-12.19 12.19S33.525 22.732 33.525 16c0-6.733 5.458-12.19 12.19-12.19S57.905 9.268 57.905 16z"/><path fill="none" stroke="#fff" style="stroke:var(--color4,#fff)" stroke-width="1.524" d="M15.238 1.524h30.476C53.709 1.524 60.19 8.005 60.19 16s-6.481 14.476-14.476 14.476H15.238C7.243 30.476.762 23.995.762 16S7.243 1.524 15.238 1.524z"/></symbol><symbol id="icon-down" viewBox="0 0 32 32"><path d="M3.76 9.143 0 12.622l16 14.806 16-14.806-3.76-3.479L16 20.445 3.76 9.143z"/></symbol><symbol id="icon-favoritepage" viewBox="0 0 32 32"><path fill="#4440f6" style="fill:var(--color5,#4440f6)" d="M32 16c0 8.837-7.163 16-16 16S0 24.837 0 16 7.163 0 16 0s16 7.163 16 16z"/><path fill="none" stroke="#f4f4f4" style="stroke:var(--color6,#f4f4f4)" stroke-linejoin="round" stroke-linecap="round" d="M22.63 10.457a4.111 4.111 0 0 0-4.496-.895 4.1 4.1 0 0 0-1.338.895l-.795.795-.795-.795a4.125 4.125 0 0 0-5.836 0 4.125 4.125 0 0 0 0 5.835l6.63 6.63 6.63-6.63a4.111 4.111 0 0 0 .895-4.496 4.116 4.116 0 0 0-.895-1.338v0z"/></symbol><symbol id="icon-frame" viewBox="0 0 32 32"><path d="M22.667 4H28a1.335 1.335 0 0 1 1.334 1.334v21.333A1.335 1.335 0 0 1 28 28.001H4a1.33 1.33 0 0 1-1.333-1.334V5.334A1.333 1.333 0 0 1 4 4h5.333V1.333H12V4h8V1.333h2.667V4zm4 10.667H5.334v10.667h21.333V14.667zm-6.667-8h-8v2.667H9.333V6.667h-4V12h21.333V6.667h-4v2.667h-2.667V6.667zM8 17.333h2.667V20H8v-2.667zm6.667 0h2.667V20h-2.667v-2.667zm6.666 0H24V20h-2.667v-2.667z"/></symbol><symbol id="icon-homepage" viewBox="0 0 32 32"><path fill="#4440f6" style="fill:var(--color5,#4440f6)" d="M32 16c0 8.837-7.163 16-16 16S0 24.837 0 16 7.163 0 16 0s16 7.163 16 16z"/><path fill="none" stroke="#f4f4f4" style="stroke:var(--color6,#f4f4f4)" stroke-linejoin="round" stroke-linecap="round" d="M9.25 13.75 16 8.5l6.75 5.25V22a1.503 1.503 0 0 1-1.5 1.5h-10.5a1.503 1.503 0 0 1-1.5-1.5v-8.25z"/><path fill="none" stroke="#f4f4f4" style="stroke:var(--color6,#f4f4f4)" stroke-linejoin="round" stroke-linecap="round" d="M13.75 23.5V16h4.5v7.5"/></symbol><symbol id="icon-lightthema" viewBox="0 0 32 32"><path fill="none" stroke-linejoin="round" stroke-linecap="round" stroke-width="2.286" d="M16 1.778v2.586m0 23.272v2.586M5.941 5.941l1.836 1.836m16.446 16.446 1.836 1.836M1.778 16h2.586m23.272 0h2.586M5.941 26.059l1.836-1.836M24.223 7.777l1.836-1.836M22.465 16a6.465 6.465 0 1 1-12.93 0 6.465 6.465 0 0 1 12.93 0z"/></symbol><symbol id="icon-lightthematogle" viewBox="0 0 61 32"><path fill="#fff" style="fill:var(--color4,#fff)" d="M15.238 1.223h30.476c8.161 0 14.777 6.616 14.777 14.777s-6.616 14.777-14.777 14.777H15.238C7.077 30.777.461 24.161.461 16S7.077 1.223 15.238 1.223z"/><path fill="#4b48db" style="fill:var(--color3,#4b48db)" d="M25.905 16c0 6.733-5.458 12.19-12.19 12.19S1.525 22.732 1.525 16c0-6.733 5.458-12.19 12.19-12.19S25.905 9.268 25.905 16z"/><path fill="none" stroke="#4b48db" style="stroke:var(--color3,#4b48db)" stroke-width=".921" d="M15.238 1.223h30.476c8.161 0 14.777 6.616 14.777 14.777s-6.616 14.777-14.777 14.777H15.238C7.077 30.777.461 24.161.461 16S7.077 1.223 15.238 1.223z"/></symbol><symbol id="icon-nextpage" viewBox="0 0 19 32"><path d="M10.15 16 1.097 6.95l4.525-4.528L19.2 16 5.622 29.578 1.097 25.05 10.15 16z"/></symbol><symbol id="icon-previouspage" viewBox="0 0 18 32"><path d="m6.464 16 11.314 11.314-3.232 3.232L0 16 14.546 1.454l3.232 3.232L6.464 16z"/></symbol><symbol id="icon-readpage" viewBox="0 0 32 32"><path fill="#4440f6" style="fill:var(--color5,#4440f6)" d="M32 16c0 8.837-7.163 16-16 16S0 24.837 0 16 7.163 0 16 0s16 7.163 16 16z"/><path fill="none" stroke="#f4f4f4" style="stroke:var(--color6,#f4f4f4)" stroke-linejoin="round" stroke-linecap="round" d="M8.5 9.25H13a3.004 3.004 0 0 1 3 3v10.5a2.25 2.25 0 0 0-2.25-2.25H8.5V9.25zM23.5 9.25H19a3.004 3.004 0 0 0-3 3v10.5a2.25 2.25 0 0 1 2.25-2.25h5.25V9.25z"/></symbol><symbol id="icon-removefavorite" viewBox="0 0 32 32"><path fill="#4b48da" style="fill:var(--color7,#4b48da)" d="M9.333 4c-3.681 0-6.667 2.955-6.667 6.6 0 2.943 1.167 9.927 12.651 16.987a1.316 1.316 0 0 0 1.366 0c11.484-7.06 12.651-14.044 12.651-16.987 0-3.645-2.985-6.6-6.667-6.6S16 8 16 8s-2.985-4-6.667-4z"/></symbol><symbol id="icon-search" viewBox="0 0 34 32"><path d="M14.035 24c2.491 0 4.911-.793 6.873-2.251l6.17 5.861 1.985-1.885-6.17-5.861c1.535-1.864 2.37-4.163 2.371-6.531 0-5.881-5.037-10.667-11.228-10.667S2.808 7.451 2.808 13.333C2.808 19.214 7.845 24 14.036 24zm0-18.667c4.644 0 8.421 3.588 8.421 8s-3.777 8-8.421 8c-4.644 0-8.421-3.588-8.421-8s3.777-8 8.421-8z"/></symbol><symbol id="icon-up" viewBox="0 0 32 32"><path fill="#4440f6" style="fill:var(--color5,#4440f6)" d="M3.76 25.143 0 21.664 16 6.858l16 14.806-3.76 3.479L16 13.841 3.76 25.143z"/><symbol id="icon-touchhand" viewBox="0 0 32 32"><path d="M21.759 11.984c.307-.1.613-.136.919-.108s.591.109.855.243a2.32 2.32 0 0 1 1.153 1.355l1.438 4.417a6.894 6.894 0 0 1-.42 5.314c-.411.795-.959 1.495-1.645 2.1s-1.487 1.061-2.404 1.368c-1.104.359-2.201.483-3.289.371s-2.149-.428-3.184-.948l-7.196-3.662a2.434 2.434 0 0 1-1.195-1.405c-.105-.322-.141-.641-.108-.957s.118-.615.255-.897.326-.522.567-.719c.241-.197.52-.356.837-.476a2.328 2.328 0 0 1 1.843.151l1.628.819-1.258-3.865c-.522-.068-1.016-.204-1.481-.408s-.891-.469-1.276-.793c-.385-.324-.727-.696-1.025-1.117s-.524-.881-.679-1.382c-.232-.713-.315-1.424-.249-2.133s.256-1.377.569-2.004c.313-.628.738-1.173 1.274-1.636s1.164-.815 1.882-1.058c.713-.232 1.424-.315 2.133-.249s1.377.256 2.004.569 1.173.738 1.636 1.274a5.581 5.581 0 0 1 1.058 1.882 5.408 5.408 0 0 1-.409 4.293c.291-.018.57.018.837.109s.52.229.758.415a2.347 2.347 0 0 1 2.144-.723c.387.069.734.236 1.041.501.283-.304.612-.517.988-.639zm-14.192-1.08c.187.575.496 1.081.926 1.518s.932.753 1.504.948l-.958-2.945c-.1-.307-.136-.613-.108-.919s.109-.591.243-.855a2.32 2.32 0 0 1 1.355-1.153c.307-.1.613-.136.919-.108s.591.109.855.243a2.32 2.32 0 0 1 1.153 1.355l.958 2.945c.348-.495.567-1.045.658-1.652s.043-1.197-.144-1.772c-.165-.506-.415-.95-.752-1.333s-.727-.684-1.172-.903c-.445-.22-.922-.357-1.432-.412s-1.018 0-1.524.165-.95.415-1.333.752a3.924 3.924 0 0 0-1.327 2.608 3.744 3.744 0 0 0 .177 1.52zm15.647 3.049c-.065-.199-.194-.348-.387-.446s-.389-.115-.589-.05c-.261.085-.417.216-.47.395s-.055.378-.008.601c.047.222.12.461.221.717s.176.49.228.702c.052.212.051.416-.004.612s-.215.329-.481.398c-.284.092-.504.066-.661-.077s-.293-.354-.409-.63c-.115-.276-.204-.574-.265-.893s-.15-.617-.265-.893c-.115-.276-.247-.484-.393-.622s-.372-.167-.677-.085c-.261.085-.417.216-.469.395s-.055.378-.008.6c.047.222.12.461.221.717s.176.49.228.702.051.416-.004.612c-.055.196-.215.329-.481.398-.284.092-.504.067-.661-.077s-.293-.354-.409-.63c-.115-.276-.204-.574-.265-.893s-.15-.617-.265-.893c-.115-.276-.247-.484-.393-.623s-.372-.167-.677-.085c-.261.085-.417.216-.469.394s-.055.378-.008.601.12.461.221.717c.1.256.176.49.228.702s.051.416-.004.612c-.055.196-.215.329-.481.398-.199.065-.396.048-.589-.05s-.322-.247-.387-.447L11.986 9.47c-.065-.199-.194-.348-.387-.447s-.389-.115-.589-.05c-.199.065-.348.194-.446.387s-.115.389-.05.589l2.946 9.053a1.3 1.3 0 0 1-.069 1.002c-.075.16-.181.292-.316.396s-.286.191-.449.261c-.169.055-.34.077-.513.065s-.345-.057-.515-.137L9.479 19.51c-.213-.109-.431-.127-.654-.054s-.388.215-.497.429a.883.883 0 0 0-.062.669.826.826 0 0 0 .429.497l7.2 3.674c.854.434 1.719.696 2.596.783s1.773-.013 2.688-.302c.713-.232 1.337-.583 1.871-1.054s.958-1.016 1.274-1.636c.315-.62.506-1.284.573-1.993s-.014-1.424-.241-2.148l-1.438-4.417z"/></symbol><symbol id="icon-menu" viewBox="0 0 43 32"><path d="M.592 3.556a2.073 2.073 0 0 1 2.074-2.074h37.333a2.075 2.075 0 0 1 0 4.148H2.666A2.073 2.073 0 0 1 .592 3.556zm0 12.51a2.073 2.073 0 0 1 2.074-2.074h37.333a2.075 2.075 0 0 1 0 4.148H2.666a2.075 2.075 0 0 1-2.074-2.074zm2.074 10.437a2.073 2.073 0 0 0-1.467 3.541c.389.389.917.607 1.467.607h37.333A2.075 2.075 0 1 0 40 26.503H2.667z"/></symbol><symbol id="icon-cross" viewBox="0 0 32 32"><path d="M23.734 10.304 22.23 8.8l-5.963 5.962L10.305 8.8l-1.504 1.504 5.962 5.962-5.962 5.963 1.504 1.504 5.962-5.963 5.963 5.963 1.504-1.504-5.963-5.963 5.963-5.962z"/></symbol></symbol></defs></svg>