<svg width="31" height="31" viewBox="0 0 31 31" fill="none" xmlns="http://www.w3.org/2000/svg">
<path d="M21.0791 11.6093C21.3763 11.5126 21.673 11.4776 21.9693 11.5044C22.2656 11.5312 22.5417 11.6098 22.7977 11.7401C23.0538 11.8704 23.2798 12.0474 23.4759 12.2711C23.6719 12.4949 23.8183 12.7553 23.915 13.0525L25.3077 17.3316C25.5954 18.2156 25.699 19.102 25.6186 19.9909C25.5382 20.8797 25.2988 21.7094 24.9005 22.4798C24.5022 23.2503 23.9712 23.9284 23.3074 24.5142C22.6436 25.0999 21.8671 25.5416 20.9781 25.8392C19.9083 26.1873 18.8463 26.307 17.7922 26.1982C16.738 26.0895 15.7099 25.7832 14.708 25.2795L7.73646 21.7316C7.46075 21.5913 7.22244 21.4019 7.02155 21.1633C6.82066 20.9246 6.67306 20.6605 6.57877 20.3708C6.47722 20.0587 6.44236 19.7497 6.47418 19.4435C6.506 19.1374 6.58835 18.8477 6.72123 18.5744C6.85412 18.3011 7.03735 18.0689 7.27095 17.8779C7.50454 17.6869 7.77493 17.5331 8.08211 17.4167C8.69128 17.2185 9.28635 17.2672 9.86731 17.5628L11.4441 18.356L10.2255 14.6118C9.7195 14.5464 9.24114 14.4145 8.79043 14.2162C8.33972 14.0178 7.92772 13.7616 7.55442 13.4477C7.18112 13.1337 6.85015 12.7731 6.56151 12.3659C6.27287 11.9587 6.05369 11.5124 5.90396 11.0271C5.6791 10.3362 5.59876 9.6476 5.66293 8.96123C5.7271 8.27486 5.91082 7.62764 6.21408 7.01956C6.51734 6.41147 6.92874 5.88322 7.44828 5.43479C7.96782 4.98636 8.57554 4.6448 9.27144 4.41009C9.96233 4.18524 10.651 4.10489 11.3373 4.16906C12.0237 4.23323 12.6709 4.41695 13.279 4.72021C13.8871 5.02347 14.4153 5.43487 14.8638 5.95441C15.3122 6.47395 15.6538 7.08167 15.8885 7.77757C16.1133 8.46846 16.1911 9.17437 16.1217 9.89529C16.0524 10.6162 15.8425 11.2966 15.492 11.9365C15.7738 11.9187 16.0441 11.954 16.3029 12.0423C16.5617 12.1306 16.8065 12.2645 17.0375 12.444C17.3114 12.1495 17.6303 11.943 17.9943 11.8245C18.3658 11.7036 18.739 11.6766 19.1141 11.7435C19.4891 11.8104 19.8252 11.9722 20.1223 12.2288C20.3962 11.9342 20.7151 11.7277 21.0791 11.6093ZM7.33032 10.5629C7.51166 11.1201 7.81082 11.6101 8.22782 12.0331C8.64482 12.4561 9.13058 12.7622 9.68512 12.9514L8.75668 10.0987C8.65997 9.80152 8.62501 9.5048 8.65183 9.20852C8.67864 8.91224 8.75719 8.63609 8.88747 8.38008C9.01776 8.12406 9.19478 7.89802 9.41853 7.70197C9.64227 7.50591 9.90273 7.35952 10.1999 7.26281C10.497 7.1661 10.7938 7.13115 11.09 7.15796C11.3863 7.18477 11.6625 7.26332 11.9185 7.39361C12.1745 7.5239 12.4005 7.70091 12.5966 7.92466C12.7927 8.14841 12.939 8.40886 13.0358 8.70602L13.9642 11.5587C14.3011 11.0794 14.5137 10.546 14.6019 9.95861C14.69 9.37124 14.6434 8.79896 14.4621 8.24179C14.3025 7.75148 14.0598 7.32111 13.7338 6.95068C13.4079 6.58024 13.0295 6.2885 12.5986 6.07544C12.1678 5.86237 11.7055 5.72938 11.2117 5.67647C10.718 5.62355 10.226 5.67688 9.73566 5.83645C9.24535 5.99603 8.81498 6.23879 8.44455 6.56475C8.07411 6.89071 7.77865 7.27032 7.55816 7.70357C7.33767 8.13683 7.20468 8.59912 7.15919 9.09045C7.1137 9.58177 7.17074 10.0726 7.33032 10.5629ZM22.4887 13.5167C22.4258 13.3235 22.3008 13.1794 22.1137 13.0842C21.9266 12.9889 21.7365 12.9728 21.5434 13.0356C21.2908 13.1178 21.1392 13.2452 21.0885 13.4178C21.0379 13.5904 21.0353 13.7843 21.0807 13.9996C21.1261 14.2148 21.1973 14.4464 21.2944 14.6941C21.3915 14.9418 21.4652 15.1684 21.5156 15.3738C21.5661 15.5793 21.5647 15.7769 21.5114 15.9668C21.4582 16.1566 21.3029 16.2852 21.0454 16.3526C20.7706 16.442 20.557 16.417 20.4049 16.2776C20.2527 16.1382 20.1207 15.9346 20.009 15.667C19.8972 15.3994 19.8116 15.111 19.752 14.8017C19.6924 14.4925 19.6068 14.2041 19.495 13.9364C19.3833 13.6688 19.2562 13.4678 19.1139 13.3334C18.9716 13.199 18.7531 13.1715 18.4585 13.2509C18.206 13.3331 18.0543 13.4605 18.0037 13.6331C17.9531 13.8057 17.9505 13.9996 17.9959 14.2148C18.0413 14.4301 18.1125 14.6616 18.2096 14.9094C18.3066 15.1571 18.3804 15.3837 18.4308 15.5891C18.4812 15.7945 18.4798 15.9922 18.4266 16.182C18.3734 16.3719 18.218 16.5005 17.9606 16.5678C17.6858 16.6573 17.4722 16.6323 17.32 16.4929C17.1678 16.3534 17.0359 16.1499 16.9241 15.8823C16.8124 15.6147 16.7267 15.3262 16.6672 15.017C16.6076 14.7077 16.5219 14.4193 16.4102 14.1517C16.2984 13.8841 16.1714 13.6831 16.0291 13.5486C15.8867 13.4142 15.6683 13.3867 15.3737 13.4662C15.1211 13.5484 14.9695 13.6758 14.9189 13.8483C14.8682 14.0209 14.8656 14.2148 14.911 14.4301C14.9564 14.6454 15.0277 14.8769 15.1248 15.1246C15.2218 15.3724 15.2956 15.599 15.346 15.8044C15.3964 16.0098 15.395 16.2074 15.3418 16.3973C15.2885 16.5871 15.1332 16.7157 14.8758 16.7831C14.6826 16.846 14.4925 16.8298 14.3054 16.7346C14.1183 16.6394 13.9934 16.4952 13.9305 16.302L11.6094 9.17024C11.5465 8.97708 11.4216 8.8329 11.2345 8.73769C11.0474 8.64248 10.8573 8.6263 10.6641 8.68917C10.471 8.75203 10.3268 8.87701 10.2316 9.0641C10.1363 9.25118 10.1202 9.44131 10.183 9.63446L13.0373 18.4043C13.0929 18.5752 13.1139 18.7409 13.1005 18.9014C13.087 19.0619 13.0438 19.2197 12.9711 19.3748C12.8983 19.5299 12.7961 19.6577 12.6645 19.758C12.5328 19.8584 12.3877 19.9426 12.2291 20.0107C12.0657 20.0638 11.9 20.0849 11.7321 20.0738C11.5641 20.0628 11.3977 20.0183 11.2327 19.9406L9.17966 18.8958C8.97288 18.7905 8.76177 18.773 8.54633 18.8431C8.33089 18.9132 8.17055 19.0516 8.06532 19.2584C7.96008 19.4652 7.94002 19.6812 8.00513 19.9065C8.07524 20.122 8.21369 20.2823 8.42047 20.3875L15.3956 23.9466C16.2227 24.3675 17.0609 24.6205 17.9102 24.7056C18.7595 24.7907 19.6274 24.6931 20.5138 24.4128C21.2047 24.1879 21.8087 23.8476 22.3259 23.3917C22.843 22.9359 23.2544 22.4076 23.5601 21.807C23.8657 21.2063 24.0507 20.5628 24.1148 19.8764C24.179 19.1901 24.1012 18.4965 23.8813 17.7958L22.4887 13.5167Z" fill="black"/>
</svg>
