<svg aria-hidden="true" style="position: absolute; width: 0; height: 0; overflow: hidden;" version="1.1" xmlns="http://www.w3.org/2000/svg" xmlns:xlink="http://www.w3.org/1999/xlink">
<defs>
<symbol id="icon-addfavorite" viewBox="0 0 32 32">
<path  stroke="#4440f7" style="stroke: var(--color1, #4440f7)" stroke-linejoin="round" stroke-linecap="round" stroke-miterlimit="4" stroke-width="2" d="M9.333 4c-3.681 0-6.667 2.955-6.667 6.6 0 2.943 1.167 9.927 12.651 16.987 0.206 0.125 0.442 0.191 0.683 0.191s0.477-0.066 0.683-0.191c11.484-7.060 12.651-14.044 12.651-16.987 0-3.645-2.985-6.6-6.667-6.6s-6.667 4-6.667 4-2.985-4-6.667-4z"></path>
</symbol>
<symbol id="icon-darkthema" viewBox="0 0 32 32">
<path fill="none" stroke="#5f6775" style="stroke: var(--color2, #5f6775)" stroke-linejoin="round" stroke-linecap="round" stroke-miterlimit="4" stroke-width="2.2857" d="M28 17.053c-0.21 2.27-1.061 4.433-2.456 6.236s-3.273 3.172-5.417 3.946c-2.144 0.774-4.464 0.922-6.688 0.426s-4.262-1.615-5.874-3.227c-1.612-1.612-2.731-3.649-3.227-5.874s-0.348-4.544 0.426-6.688 2.143-4.023 3.946-5.417c1.803-1.394 3.966-2.246 6.236-2.456-1.329 1.798-1.968 4.013-1.802 6.242s1.127 4.325 2.708 5.906c1.581 1.581 3.676 2.542 5.906 2.708s4.444-0.473 6.242-1.802v0z"></path>
</symbol>
<symbol id="icon-darkthematogle" viewBox="0 0 61 32">
<path fill="#4b48db" style="fill: var(--color3, #4b48db)" d="M15.238 1.524h30.476c7.995 0 14.476 6.481 14.476 14.476s-6.481 14.476-14.476 14.476h-30.476c-7.995 0-14.476-6.481-14.476-14.476s6.481-14.476 14.476-14.476z"></path>
<path fill="#fff" style="fill: var(--color4, #fff)" d="M57.905 16c0 6.733-5.458 12.19-12.19 12.19s-12.19-5.458-12.19-12.19c0-6.733 5.458-12.19 12.19-12.19s12.19 5.458 12.19 12.19z"></path>
<path fill="none" stroke="#fff" style="stroke: var(--color4, #fff)" stroke-linejoin="miter" stroke-linecap="butt" stroke-miterlimit="4" stroke-width="1.5238" d="M15.238 1.524h30.476c7.995 0 14.476 6.481 14.476 14.476s-6.481 14.476-14.476 14.476h-30.476c-7.995 0-14.476-6.481-14.476-14.476s6.481-14.476 14.476-14.476z"></path>
</symbol>
<symbol id="icon-down" viewBox="0 0 32 32">
<path fill="#4440f6" style="fill: var(--color5, #4440f6)" d="M3.76 9.143l-3.76 3.479 16 14.806 16-14.806-3.76-3.479-12.24 11.302-12.24-11.302z"></path>
</symbol>
<symbol id="icon-favoritepage" viewBox="0 0 32 32">
<path fill="#4440f6" style="fill: var(--color5, #4440f6)" d="M32 16c0 8.837-7.163 16-16 16s-16-7.163-16-16c0-8.837 7.163-16 16-16s16 7.163 16 16z"></path>
<path fill="none" stroke="#f4f4f4" style="stroke: var(--color6, #f4f4f4)" stroke-linejoin="round" stroke-linecap="round" stroke-miterlimit="4" stroke-width="1" d="M22.63 10.457c-0.383-0.383-0.838-0.687-1.338-0.895s-1.037-0.314-1.579-0.314c-0.542 0-1.078 0.107-1.579 0.314s-0.955 0.511-1.338 0.895l-0.795 0.795-0.795-0.795c-0.774-0.774-1.823-1.208-2.918-1.208s-2.144 0.435-2.918 1.208c-0.774 0.774-1.208 1.823-1.208 2.918s0.435 2.144 1.208 2.917l6.63 6.63 6.63-6.63c0.383-0.383 0.687-0.838 0.895-1.338s0.314-1.037 0.314-1.579c0-0.542-0.107-1.078-0.314-1.579s-0.512-0.955-0.895-1.338v0z"></path>
</symbol>
<symbol id="icon-frame" viewBox="0 0 32 32">
<path fill="#4440f7" style="fill: var(--color1, #4440f7)" d="M22.667 4h5.333c0.354 0 0.693 0.14 0.943 0.391s0.391 0.589 0.391 0.943v21.333c0 0.354-0.14 0.693-0.391 0.943s-0.589 0.391-0.943 0.391h-24c-0.354 0-0.693-0.14-0.943-0.391s-0.39-0.589-0.39-0.943v-21.333c0-0.354 0.14-0.693 0.39-0.943s0.589-0.391 0.943-0.391h5.333v-2.667h2.667v2.667h8v-2.667h2.667v2.667zM26.667 14.667h-21.333v10.667h21.333v-10.667zM20 6.667h-8v2.667h-2.667v-2.667h-4v5.333h21.333v-5.333h-4v2.667h-2.667v-2.667zM8 17.333h2.667v2.667h-2.667v-2.667zM14.667 17.333h2.667v2.667h-2.667v-2.667zM21.333 17.333h2.667v2.667h-2.667v-2.667z"></path>
</symbol>
<symbol id="icon-homepage" viewBox="0 0 32 32">
<path fill="#4440f6" style="fill: var(--color5, #4440f6)" d="M32 16c0 8.837-7.163 16-16 16s-16-7.163-16-16c0-8.837 7.163-16 16-16s16 7.163 16 16z"></path>
<path fill="none" stroke="#f4f4f4" style="stroke: var(--color6, #f4f4f4)" stroke-linejoin="round" stroke-linecap="round" stroke-miterlimit="4" stroke-width="1" d="M9.25 13.75l6.75-5.25 6.75 5.25v8.25c0 0.398-0.158 0.779-0.439 1.061s-0.663 0.439-1.061 0.439h-10.5c-0.398 0-0.779-0.158-1.061-0.439s-0.439-0.663-0.439-1.061v-8.25z"></path>
<path fill="none" stroke="#f4f4f4" style="stroke: var(--color6, #f4f4f4)" stroke-linejoin="round" stroke-linecap="round" stroke-miterlimit="4" stroke-width="1" d="M13.75 23.5v-7.5h4.5v7.5"></path>
</symbol>
<symbol id="icon-lightthema" viewBox="0 0 32 32">
<path fill="none" stroke="#4b48db" style="stroke: var(--color3, #4b48db)" stroke-linejoin="round" stroke-linecap="round" stroke-miterlimit="4" stroke-width="2.2857" d="M16 1.778v2.586M16 27.636v2.586M5.941 5.941l1.836 1.836M24.223 24.223l1.836 1.836M1.778 16h2.586M27.636 16h2.586M5.941 26.059l1.836-1.836M24.223 7.777l1.836-1.836M22.465 16c0 3.57-2.894 6.465-6.465 6.465s-6.465-2.894-6.465-6.465c0-3.57 2.894-6.465 6.465-6.465s6.465 2.894 6.465 6.465z"></path>
</symbol>
<symbol id="icon-lightthematogle" viewBox="0 0 61 32">
<path fill="#fff" style="fill: var(--color4, #fff)" d="M15.238 1.223h30.476c8.161 0 14.777 6.616 14.777 14.777s-6.616 14.777-14.777 14.777h-30.476c-8.161 0-14.777-6.616-14.777-14.777s6.616-14.777 14.777-14.777z"></path>
<path fill="#4b48db" style="fill: var(--color3, #4b48db)" d="M25.905 16c0 6.733-5.458 12.19-12.19 12.19s-12.19-5.458-12.19-12.19c0-6.733 5.458-12.19 12.19-12.19s12.19 5.458 12.19 12.19z"></path>
<path fill="none" stroke="#4b48db" style="stroke: var(--color3, #4b48db)" stroke-linejoin="miter" stroke-linecap="butt" stroke-miterlimit="4" stroke-width="0.9214" d="M15.238 1.223h30.476c8.161 0 14.777 6.616 14.777 14.777s-6.616 14.777-14.777 14.777h-30.476c-8.161 0-14.777-6.616-14.777-14.777s6.616-14.777 14.777-14.777z"></path>
</symbol>
<symbol id="icon-nextpage" viewBox="0 0 19 32">
<path d="M10.15 16l-9.053-9.050 4.525-4.528 13.578 13.578-13.578 13.578-4.525-4.528 9.053-9.050z"></path>
</symbol>
<symbol id="icon-previouspage" viewBox="0 0 18 32">
<path d="M6.464 16l11.314 11.314-3.232 3.232-14.546-14.546 14.546-14.546 3.232 3.232-11.314 11.314z"></path>
</symbol>
<symbol id="icon-readpage" viewBox="0 0 32 32">
<path fill="#4440f6" style="fill: var(--color5, #4440f6)" d="M32 16c0 8.837-7.163 16-16 16s-16-7.163-16-16c0-8.837 7.163-16 16-16s16 7.163 16 16z"></path>
<path fill="none" stroke="#f4f4f4" style="stroke: var(--color6, #f4f4f4)" stroke-linejoin="round" stroke-linecap="round" stroke-miterlimit="4" stroke-width="1" d="M8.5 9.25h4.5c0.796 0 1.559 0.316 2.121 0.879s0.879 1.326 0.879 2.121v10.5c0-0.597-0.237-1.169-0.659-1.591s-0.994-0.659-1.591-0.659h-5.25v-11.25z"></path>
<path fill="none" stroke="#f4f4f4" style="stroke: var(--color6, #f4f4f4)" stroke-linejoin="round" stroke-linecap="round" stroke-miterlimit="4" stroke-width="1" d="M23.5 9.25h-4.5c-0.796 0-1.559 0.316-2.121 0.879s-0.879 1.326-0.879 2.121v10.5c0-0.597 0.237-1.169 0.659-1.591s0.994-0.659 1.591-0.659h5.25v-11.25z"></path>
</symbol>
<symbol id="icon-removefavorite" viewBox="0 0 32 32">
<path fill="#4b48da" style="fill: var(--color7, #4b48da)" d="M9.333 4c-3.681 0-6.667 2.955-6.667 6.6 0 2.943 1.167 9.927 12.651 16.987 0.206 0.125 0.442 0.191 0.683 0.191s0.477-0.066 0.683-0.191c11.484-7.060 12.651-14.044 12.651-16.987 0-3.645-2.985-6.6-6.667-6.6s-6.667 4-6.667 4-2.985-4-6.667-4z"></path>
</symbol>
<symbol id="icon-search" viewBox="0 0 34 32">
<path d="M14.035 24c2.491-0 4.911-0.793 6.873-2.251l6.17 5.861 1.985-1.885-6.17-5.861c1.535-1.864 2.37-4.163 2.371-6.531 0-5.881-5.037-10.667-11.228-10.667s-11.228 4.785-11.228 10.667c0 5.881 5.037 10.667 11.228 10.667zM14.035 5.333c4.644 0 8.421 3.588 8.421 8s-3.777 8-8.421 8c-4.644 0-8.421-3.588-8.421-8s3.777-8 8.421-8z"></path>
</symbol>
<symbol id="icon-up" viewBox="0 0 32 32">
<path fill="#4440f6" style="fill: var(--color5, #4440f6)" d="M3.76 25.143l-3.76-3.479 16-14.806 16 14.806-3.76 3.479-12.24-11.302-12.24 11.302z"></path>

<symbol id="icon-touchhand" viewBox="0 0 32 32">
<path d="M21.759 11.984c0.307-0.1 0.613-0.136 0.919-0.108s0.591 0.109 0.855 0.243c0.264 0.134 0.498 0.317 0.7 0.548s0.353 0.5 0.453 0.807l1.438 4.417c0.297 0.913 0.404 1.828 0.321 2.745s-0.33 1.774-0.741 2.569c-0.411 0.795-0.959 1.495-1.645 2.1s-1.487 1.061-2.404 1.368c-1.104 0.359-2.201 0.483-3.289 0.371s-2.149-0.428-3.184-0.948l-7.196-3.662c-0.285-0.145-0.531-0.34-0.738-0.587s-0.36-0.519-0.457-0.818c-0.105-0.322-0.141-0.641-0.108-0.957s0.118-0.615 0.255-0.897 0.326-0.522 0.567-0.719c0.241-0.197 0.52-0.356 0.837-0.476 0.629-0.205 1.243-0.154 1.843 0.151l1.628 0.819-1.258-3.865c-0.522-0.068-1.016-0.204-1.481-0.408s-0.891-0.469-1.276-0.793c-0.385-0.324-0.727-0.696-1.025-1.117s-0.524-0.881-0.679-1.382c-0.232-0.713-0.315-1.424-0.249-2.133s0.256-1.377 0.569-2.004c0.313-0.628 0.738-1.173 1.274-1.636s1.164-0.815 1.882-1.058c0.713-0.232 1.424-0.315 2.133-0.249s1.377 0.256 2.004 0.569 1.173 0.738 1.636 1.274c0.463 0.536 0.815 1.164 1.058 1.882 0.232 0.713 0.312 1.442 0.241 2.186s-0.288 1.447-0.65 2.107c0.291-0.018 0.57 0.018 0.837 0.109s0.52 0.229 0.758 0.415c0.283-0.304 0.612-0.517 0.988-0.639 0.383-0.125 0.769-0.153 1.156-0.084s0.734 0.236 1.041 0.501c0.283-0.304 0.612-0.517 0.988-0.639zM7.567 10.904c0.187 0.575 0.496 1.081 0.926 1.518s0.932 0.753 1.504 0.948l-0.958-2.945c-0.1-0.307-0.136-0.613-0.108-0.919s0.109-0.591 0.243-0.855c0.134-0.264 0.317-0.498 0.548-0.7s0.5-0.354 0.807-0.453c0.307-0.1 0.613-0.136 0.919-0.108s0.591 0.109 0.855 0.243 0.498 0.317 0.7 0.548c0.202 0.231 0.353 0.5 0.453 0.807l0.958 2.945c0.348-0.495 0.567-1.045 0.658-1.652s0.043-1.197-0.144-1.772c-0.165-0.506-0.415-0.95-0.752-1.333s-0.727-0.684-1.172-0.903c-0.445-0.22-0.922-0.357-1.432-0.412s-1.018 0-1.524 0.165-0.95 0.415-1.333 0.752c-0.382 0.336-0.687 0.728-0.915 1.176s-0.365 0.924-0.412 1.432c-0.047 0.507 0.012 1.014 0.177 1.52zM23.214 13.953c-0.065-0.199-0.194-0.348-0.387-0.446s-0.389-0.115-0.589-0.050c-0.261 0.085-0.417 0.216-0.47 0.395s-0.055 0.378-0.008 0.601c0.047 0.222 0.12 0.461 0.221 0.717s0.176 0.49 0.228 0.702c0.052 0.212 0.051 0.416-0.004 0.612s-0.215 0.329-0.481 0.398c-0.284 0.092-0.504 0.066-0.661-0.077s-0.293-0.354-0.409-0.63c-0.115-0.276-0.204-0.574-0.265-0.893s-0.15-0.617-0.265-0.893c-0.115-0.276-0.247-0.484-0.393-0.622s-0.372-0.167-0.677-0.085c-0.261 0.085-0.417 0.216-0.469 0.395s-0.055 0.378-0.008 0.6c0.047 0.222 0.12 0.461 0.221 0.717s0.176 0.49 0.228 0.702 0.051 0.416-0.004 0.612c-0.055 0.196-0.215 0.329-0.481 0.398-0.284 0.092-0.504 0.067-0.661-0.077s-0.293-0.354-0.409-0.63c-0.115-0.276-0.204-0.574-0.265-0.893s-0.15-0.617-0.265-0.893c-0.115-0.276-0.247-0.484-0.393-0.623s-0.372-0.167-0.677-0.085c-0.261 0.085-0.417 0.216-0.469 0.394s-0.055 0.378-0.008 0.601 0.12 0.461 0.221 0.717c0.1 0.256 0.176 0.49 0.228 0.702s0.051 0.416-0.004 0.612c-0.055 0.196-0.215 0.329-0.481 0.398-0.199 0.065-0.396 0.048-0.589-0.050s-0.322-0.247-0.387-0.447l-2.396-7.362c-0.065-0.199-0.194-0.348-0.387-0.447s-0.389-0.115-0.589-0.050c-0.199 0.065-0.348 0.194-0.446 0.387s-0.115 0.389-0.050 0.589l2.946 9.053c0.057 0.176 0.079 0.347 0.065 0.513s-0.059 0.329-0.134 0.489c-0.075 0.16-0.181 0.292-0.316 0.396s-0.286 0.191-0.449 0.261c-0.169 0.055-0.34 0.077-0.513 0.065s-0.345-0.057-0.515-0.137l-2.119-1.079c-0.213-0.109-0.431-0.127-0.654-0.054s-0.388 0.215-0.497 0.429c-0.109 0.213-0.129 0.436-0.062 0.669 0.072 0.222 0.215 0.388 0.429 0.497l7.2 3.674c0.854 0.434 1.719 0.696 2.596 0.783s1.773-0.013 2.688-0.302c0.713-0.232 1.337-0.583 1.871-1.054s0.958-1.016 1.274-1.636c0.315-0.62 0.506-1.284 0.573-1.993s-0.014-1.424-0.241-2.148l-1.438-4.417z"></path>

</symbol>
</defs>
</svg>
